<svg xmlns="http://www.w3.org/2000/svg" viewBox="0 0 220 32" fill="none">
  <rect width="32" height="32" rx="6" fill="currentColor"/>
  <g stroke="white" fill="white">
    <path d="M10 9 Q 8 9 8 11 V 14 Q 8 16 6 16 Q 8 16 8 18 V 21 Q 8 23 10 23" stroke-width="1.5" stroke-linecap="round" fill="none"/>
    <path d="M22 9 Q 24 9 24 11 V 14 Q 24 16 26 16 Q 24 16 24 18 V 21 Q 24 23 22 23" stroke-width="1.5" stroke-linecap="round" fill="none"/>
    <rect x="11" y="11.75" width="10" height="1.5" rx="0.75" stroke="none"/>
    <rect x="11" y="15.25" width="6" height="1.5" rx="0.75" stroke="none"/>
    <rect x="11" y="18.75" width="8" height="1.5" rx="0.75" stroke="none"/>
  </g>
  <text x="44" y="21" font-family="-apple-system, BlinkMacSystemFont, 'Segoe UI', system-ui, sans-serif" font-size="16" font-weight="600" fill="currentColor" letter-spacing="-0.01em">OpenSchemaExtract</text>
</svg>
